:version 1.10
:name ASF
:units
  mass 1
  length 1
  angle deg
:documentation
  ASF file generated by Kaydara
:root
  axis xyz
  order  tx ty tz rx ry rz
  position 0 0 0
  orientation 0 0 0
:bonedata
  begin
    id 1
    name lfemurDummy
    direction 0.61522 -0.761478 0.204097
    length 5.68318
    axis 0 -0 0 xyz
  end
  begin
    id 2
    name lfemur
    direction 0.34202 -0.939693 -5.84747e-008
    length 16.9147
    axis 0 -0 20 xyz
    dof rx ry rz
    limits( -inf , inf )
( -inf , inf )
( -inf , inf )

  end
  begin
    id 3
    name ltibia
    direction 0.34202 -0.939693 1.20839e-009
    length 18.0532
    axis 0 -0 20 xyz
    dof rz ry rx
    limits( -inf , inf )
( -inf , inf )
( -inf , inf )

  end
  begin
    id 4
    name lfoot
    direction 0.0841971 -0.23133 0.969225
    length 5.23822
    axis -90 7.62852e-016 20 xyz
    dof ry rx rz
    limits( -inf , inf )
( -inf , inf )
( -inf , inf )

  end
  begin
    id 5
    name ltoes
    direction 0 0 0
    length 0
    axis 0 0 0 xyz
    dof rz ry rx
    limits( -inf , inf )
( -inf , inf )
( -inf , inf )

  end
  begin
    id 6
    name rfemurDummy
    direction -0.625247 -0.75382 0.202044
    length 5.74091
    axis 0 -0 0 xyz
  end
  begin
    id 7
    name rfemur
    direction -0.34202 -0.939693 -1.47013e-008
    length 16.4922
    axis 0 -0 -20 xyz
    dof rx ry rz
    limits( -inf , inf )
( -inf , inf )
( -inf , inf )

  end
  begin
    id 8
    name rtibia
    direction -0.34202 -0.939693 -7.74345e-010
    length 18.2421
    axis 0 -0 -20 xyz
    dof rz ry rx
    limits( -inf , inf )
( -inf , inf )
( -inf , inf )

  end
  begin
    id 9
    name rfoot
    direction -0.124331 -0.341598 0.931586
    length 5.45787
    axis -90 -7.62852e-016 -20 xyz
    dof ry rx rz
    limits( -inf , inf )
( -inf , inf )
( -inf , inf )

  end
  begin
    id 10
    name rtoes
    direction 0 0 0
    length 0
    axis 0 0 0 xyz
    dof rz ry rx
    limits( -inf , inf )
( -inf , inf )
( -inf , inf )

  end
  begin
    id 11
    name lowerbackDummy
    direction 0 0 0
    length 0
    axis 0 -0 0 xyz
  end
  begin
    id 12
    name lowerback
    direction -0.0218484 0.994884 -0.0986304
    length 4.45607
    axis 0 -0 0 xyz
    dof rx ry rz
    limits( -inf , inf )
( -inf , inf )
( -inf , inf )

  end
  begin
    id 13
    name upperback
    direction -0.00973057 0.999717 -0.0217111
    length 4.47449
    axis 0 -0 0 xyz
    dof rx ry rz
    limits( -inf , inf )
( -inf , inf )
( -inf , inf )

  end
  begin
    id 14
    name thorax
    direction -0.000928171 0.999699 0.0245198
    length 4.50973
    axis 0 -0 0 xyz
    dof rx ry rz
    limits( -inf , inf )
( -inf , inf )
( -inf , inf )

  end
  begin
    id 15
    name rclavicle
    direction -0.9009 0.425937 -0.0834055
    length 7.28587
    axis 0 -0 0 xyz
    dof rx ry rz
    limits( -inf , inf )
( -inf , inf )
( -inf , inf )

  end
  begin
    id 16
    name rhumerus
    direction -1 -2.23604e-007 -1.42637e-007
    length 13.5704
    axis 180 30 90 xyz
    dof rx ry rz
    limits( -inf , inf )
( -inf , inf )
( -inf , inf )

  end
  begin
    id 17
    name rradius
    direction -1 5.68281e-008 -4.4952e-007
    length 8.06782
    axis 180 30 90 xyz
    dof rz ry rx
    limits( -inf , inf )
( -inf , inf )
( -inf , inf )

  end
  begin
    id 18
    name rwrist
    direction -1 1.51393e-007 1.38143e-007
    length 4.03391
    axis -90 -90 0 xyz
    dof rz rx ry
    limits( -inf , inf )
( -inf , inf )
( -inf , inf )

  end
  begin
    id 19
    name rthumb
    direction 0 0 0
    length 0
    axis 0 0 0 xyz
    dof ry rx rz
    limits( -inf , inf )
( -inf , inf )
( -inf , inf )

  end
  begin
    id 20
    name rhand
    direction -1 -3.34077e-007 -5.59631e-007
    length 1.29744
    axis -90 -90 0 xyz
    dof ry rx rz
    limits( -inf , inf )
( -inf , inf )
( -inf , inf )

  end
  begin
    id 21
    name rfingers
    direction 0 0 0
    length 0
    axis 0 0 0 xyz
    dof rz ry rx
    limits( -inf , inf )
( -inf , inf )
( -inf , inf )

  end
  begin
    id 22
    name lclavicle
    direction 0.940017 0.332249 -0.0773232
    length 8.29589
    axis 0 -0 0 xyz
    dof rx ry rz
    limits( -inf , inf )
( -inf , inf )
( -inf , inf )

  end
  begin
    id 23
    name lhumerus
    direction 1 7.41158e-008 -1.44768e-008
    length 12.0042
    axis 180 -30 -90 xyz
    dof rx ry rz
    limits( -inf , inf )
( -inf , inf )
( -inf , inf )

  end
  begin
    id 24
    name lradius
    direction 1 -1.32972e-007 3.10821e-007
    length 8.1902
    axis 180 -30 -90 xyz
    dof rz ry rx
    limits( -inf , inf )
( -inf , inf )
( -inf , inf )

  end
  begin
    id 25
    name lwrist
    direction 1 3.08957e-007 4.01394e-007
    length 4.09509
    axis -90 90 0 xyz
    dof rz rx ry
    limits( -inf , inf )
( -inf , inf )
( -inf , inf )

  end
  begin
    id 26
    name lthumb
    direction 0 0 0
    length 0
    axis 0 0 0 xyz
    dof ry rx rz
    limits( -inf , inf )
( -inf , inf )
( -inf , inf )

  end
  begin
    id 27
    name lhand
    direction 1 -1.64125e-007 -6.99514e-007
    length 1.37229
    axis -90 90 0 xyz
    dof ry rx rz
    limits( -inf , inf )
( -inf , inf )
( -inf , inf )

  end
  begin
    id 28
    name lfingers
    direction 0 0 0
    length 0
    axis 0 0 0 xyz
    dof rz ry rx
    limits( -inf , inf )
( -inf , inf )
( -inf , inf )

  end
  begin
    id 29
    name lowerneck
    direction -0.030798 0.998024 0.0547665
    length 3.93918
    axis 0 -0 0 xyz
    dof rx ry rz
    limits( -inf , inf )
( -inf , inf )
( -inf , inf )

  end
  begin
    id 30
    name upperneck
    direction 0.0531588 0.996611 -0.0627736
    length 3.95491
    axis 0 -0 0 xyz
    dof rx ry rz
    limits( -inf , inf )
( -inf , inf )
( -inf , inf )

  end
  begin
    id 31
    name head
    direction 0 0 0
    length 0
    axis 0 0 0 xyz
    dof rx ry rz
    limits( -inf , inf )
( -inf , inf )
( -inf , inf )

  end
:hierarchy
  begin
    root lfemurDummy rfemurDummy lowerbackDummy
    lfemurDummy lfemur
    lfemur ltibia
    ltibia lfoot
    lfoot ltoes
    rfemurDummy rfemur
    rfemur rtibia
    rtibia rfoot
    rfoot rtoes
    lowerbackDummy lowerback
    lowerback upperback
    upperback thorax
    thorax rclavicle lclavicle lowerneck
    rclavicle rhumerus
    rhumerus rradius
    rradius rwrist
    rwrist rthumb rhand
    rhand rfingers
    lclavicle lhumerus
    lhumerus lradius
    lradius lwrist
    lwrist lthumb lhand
    lhand lfingers
    lowerneck upperneck
    upperneck head
  end

:SAMPLES-PER-SECOND 30
:FULLY-SPECIFIED
:DEGREES
28
root  15.75324442 34.99110965 1.428599996 -20.77999878 -58.24500275 21.61799622
lowerback  27.8029995 2.981620073 3.479340076
upperback  11.3913002 4.345300198 8.278260231
thorax  -2.972749949 1.718099952 5.877490044
lowerneck  4.765659809 5.282519817 3.641119957
upperneck  12.17800045 6.108809948 7.833759785
head  2.956690073 3.291419983 1.984290004
lclavicle  0 -9.442270133e-015 7.951389973e-016
lhumerus  18.46339989 8.381560326 69.23139954
lradius  2.338501547e-031 -2.645799417e-031 131.4720001
lwrist  -1.412450015e-030 -0 21.53759956
lhand  -1.496451383e-031 -27.76390076 20.11240005
lfingers  90 7.125020027 -90
lthumb  89.89689403 5.08795885 91.16245106
rclavicle  0 -9.442270133e-015 7.951389973e-016
rhumerus  55.50360107 18.10440063 -59.77130127
rradius  2.733232171e-033 3.531019255e-031 89.5565033
rwrist  3.531125038e-031 7.062250077e-031 -60.76490021
rhand  -7.920061211e-032 -33.2840004 9.303460121
rfingers  -90 -7.125020027 -90
rthumb  -92.93752616 -24.25625642 -97.11982154
rfemur  -36.35129929 8.892270088 -20.1072998
rtibia  -0 0 78.39700317
rfoot  -0 -12.72179985 9.832949638
rtoes  5.373923086 19.29304026 -105.8922705
lfemur  -37.32720184 -0.2678590119 -9.082539558
ltibia  -0 0 74.25170135
lfoot  4.503577212e-032 -11.45269966 -2.67227006
ltoes  -4.250644065 -19.5611806 -102.515957
29
root  15.91911166 34.64244332 1.557886694 -21.28900146 -58.41699982 22.13499451
lowerback  27.78420067 3.142940044 3.453619957
upperback  11.68369961 4.501930237 8.633049965
thorax  -2.675709963 1.772600055 6.254010201
lowerneck  6.088469982 5.000800133 4.575059891
upperneck  12.36289978 5.716430187 8.528429985
head  2.808830023 3.117599964 2.015749931
lclavicle  0 -9.442270133e-015 7.951389973e-016
lhumerus  20.77529907 9.138199806 68.47329712
lradius  2.325311796e-031 -2.657398933e-031 131.1869965
lwrist  0 1.765562519e-031 21.95560074
lhand  -1.496451383e-031 -27.76390076 20.11240005
lfingers  90 7.125020027 -90
lthumb  89.89689403 5.08795885 91.16245106
rclavicle  0 -9.442270133e-015 7.951389973e-016
rhumerus  56.83380127 16.86660004 -60.82540131
rradius  3.808010665e-033 3.530919702e-031 89.38210297
rwrist  7.062250077e-031 7.062250077e-031 -61.84059906
rhand  -7.920061211e-032 -33.2840004 9.303460121
rfingers  -90 -7.125020027 -90
rthumb  -92.93752616 -24.25625642 -97.11982154
rfemur  -37.10240173 8.28192997 -20.61030006
rtibia  -0 0 79.79509735
rfoot  -0 -11.00209999 11.59529972
rtoes  5.373923086 19.29304026 -105.8922705
lfemur  -37.55780029 -1.249819994 -9.16189003
ltibia  -0 0 74.93340302
lfoot  4.506354348e-032 -11.6257 -3.764580011
ltoes  -4.250644065 -19.5611806 -102.515957
30
root  16.07475581 34.24688925 1.693675462 -21.91099548 -58.70700073 22.82800293
lowerback  27.6711998 3.300529957 3.371180058
upperback  11.99050045 4.627110004 8.956500053
thorax  -2.318959951 1.809509993 6.641749859
lowerneck  7.198820114 4.791279793 5.175769806
upperneck  12.62269974 5.406579971 9.296449661
head  2.712970018 2.977319956 2.142529964
lclavicle  0 -9.442270133e-015 7.951389973e-016
lhumerus  22.71890068 10.02600002 67.77279663
lradius  2.321645782e-031 -2.660602356e-031 131.1080017
lwrist  -7.062250077e-031 -0 22.54520035
lhand  -1.496451383e-031 -27.76390076 20.11240005
lfingers  90 7.125020027 -90
lthumb  89.89689403 5.08795885 91.16245106
rclavicle  0 -9.442270133e-015 7.951389973e-016
rhumerus  58.07640076 15.86019993 -61.86109924
rradius  3.401310835e-033 3.530961221e-031 89.44809723
rwrist  3.531125038e-031 3.531125038e-031 -62.94499969
rhand  -7.920061211e-032 -33.2840004 9.303460121
rfingers  -90 -7.125020027 -90
rthumb  -92.93752616 -24.25625642 -97.11982154
rfemur  -37.80239868 7.496339798 -21.05830002
rtibia  -0 0 81.01210022
rfoot  -0 -10.58250046 11.94690037
rtoes  5.373923086 19.29304026 -105.8922705
lfemur  -37.70080185 -1.829920053 -9.336299896
ltibia  -0 0 75.67060089
lfoot  4.531427548e-032 -13.07740021 -4.253819942
ltoes  -4.250644065 -19.5611806 -102.515957
31
root  16.22444513 33.81199874 1.833800068 -22.29800415 -59.2480011 23.25999451
lowerback  27.54430008 3.297440052 3.033230066
upperback  12.1928997 4.50191021 9.646920204
thorax  -2.093869925 1.697600007 7.676449776
lowerneck  8.939749718 4.945219994 4.466929913
upperneck  12.78489971 5.599559784 9.949879646
head  2.422719955 3.005079985 2.426670074
lclavicle  0 -9.442270133e-015 7.951389973e-016
lhumerus  23.33609962 11.74069977 67.3667984
lradius  2.334203815e-031 -2.649591777e-031 131.3789978
lwrist  -7.062250077e-031 1.765562519e-031 23.18289948
lhand  -1.496451383e-031 -27.76390076 20.11240005
lfingers  90 7.125020027 -90
lthumb  89.89689403 5.08795885 91.16245106
rclavicle  0 -9.442270133e-015 7.951389973e-016
rhumerus  59.33890152 15.94810009 -62.35139847
rradius  1.095794075e-033 3.531108036e-031 89.82219696
rwrist  7.062250077e-031 -0 -64.44419861
rhand  -7.920061211e-032 -33.2840004 9.303460121
rfingers  -90 -7.125020027 -90
rthumb  -92.93752616 -24.25625642 -97.11982154
rfemur  -38.43569946 6.661809921 -21.16860008
rtibia  -0 0 82.12670135
rfoot  -0 -12.0770998 11.23680019
rtoes  5.373923086 19.29304026 -105.8922705
lfemur  -37.77529907 -1.855129957 -9.232370377
ltibia  -0 0 76.56980133
lfoot  4.580731995e-032 -15.51060009 -3.995179892
ltoes  -4.250644065 -19.5611806 -102.515957
32
root  16.37217754 33.39911033 1.986322253 -22.72799683 -59.98000336 23.72000122
lowerback  27.48040009 3.665260077 3.676039934
upperback  12.69180012 5.016860008 9.636890411
thorax  -1.500570059 1.952900052 7.152180195
lowerneck  8.940970421 4.457270145 6.22176981
upperneck  12.88269997 4.992760181 10.20740032
head  2.527539968 2.781049967 2.230760098
lclavicle  0 -9.442270133e-015 7.951389973e-016
lhumerus  25.70400047 11.96240044 66.64029694
lradius  2.339840728e-031 -2.644615172e-031 131.5010071
lwrist  -7.062250077e-031 -1.324171889e-031 24.19869995
lhand  -1.496451383e-031 -27.76390076 20.11240005
lfingers  90 7.125020027 -90
lthumb  89.89689403 5.08795885 91.16245106
rclavicle  0 -9.442270133e-015 7.951389973e-016
rhumerus  60.33119965 14.30270004 -63.89799881
rradius  -5.743933063e-034 3.531120367e-031 90.09320068
rwrist  3.531125038e-031 7.062250077e-031 -65.28620148
rhand  -7.920061211e-032 -33.2840004 9.303460121
rfingers  -90 -7.125020027 -90
rthumb  -92.93752616 -24.25625642 -97.11982154
rfemur  -38.99330139 5.899050236 -21.21199989
rtibia  -0 0 83.11910248
rfoot  -0 -14.81569958 8.476369858
rtoes  5.373923086 19.29304026 -105.8922705
lfemur  -37.76290131 -1.658550024 -9.090900421
ltibia  -0 0 77.54260254
lfoot  4.645669173e-032 -18.17429924 -3.144239902
ltoes  -4.250644065 -19.5611806 -102.515957
33
root  16.51784491 33.01377785 2.144186703 -23.20799255 -60.84799957 24.30400085
lowerback  27.37940025 3.740430117 3.899420023
upperback  12.99660015 5.083859921 9.878490448
thorax  -1.111700058 1.965399981 7.294769764
lowerneck  10.00959969 4.568379879 5.98142004
upperneck  12.78750038 5.168759823 10.70320034
head  2.29073 2.82111001 2.399849892
lclavicle  0 -9.442270133e-015 7.951389973e-016
lhumerus  26.3885994 13.13840008 66.03029633
lradius  2.360447346e-031 -2.626239206e-031 131.9490051
lwrist  -1.412450015e-030 -4.413906298e-032 24.90200043
lhand  -1.496451383e-031 -27.76390076 20.11240005
lfingers  90 7.125020027 -90
lthumb  89.89689403 5.08795885 91.16245106
rclavicle  0 -9.442270133e-015 7.951389973e-016
rhumerus  61.42470169 14.31610012 -65.02629852
rradius  -2.503358819e-033 3.531036301e-031 90.40619659
rwrist  0 1.059337512e-030 -65.97769928
rhand  -7.920061211e-032 -33.2840004 9.303460121
rfingers  -90 -7.125020027 -90
rthumb  -92.93752616 -24.25625642 -97.11982154
rfemur  -39.66210175 5.252150059 -21.30610085
rtibia  -0 0 83.98110199
rfoot  -4.620140428e-032 -17.18379974 5.689280033
rtoes  5.373923086 19.29304026 -105.8922705
lfemur  -37.76890182 -1.245569944 -9.045069695
ltibia  -0 0 78.47540283
lfoot  7.08383523e-032 -20.82939911 -2.574959993
ltoes  -4.250644065 -19.5611806 -102.515957
34
root  16.65464386 32.6339992 2.303022287 -24.30499268 -61.78500366 25.41099548
lowerback  27.60020065 3.963119984 4.222270012
upperback  13.33419991 5.372889996 9.76760006
thorax  -0.8181740046 2.106400013 6.905499935
lowerneck  10.40579987 4.518350124 6.554860115
upperneck  12.79660034 5.137609959 10.96249962
head  2.242630005 2.814630032 2.381570101
lclavicle  0 -9.442270133e-015 7.951389973e-016
lhumerus  27.48410034 13.66189957 65.30049896
lradius  2.37963501e-031 -2.608865894e-031 132.3690033
lwrist  0 -0 25.21660042
lhand  -1.496451383e-031 -27.76390076 20.11240005
lfingers  90 7.125020027 -90
lthumb  89.89689403 5.08795885 91.16245106
rclavicle  0 -9.442270133e-015 7.951389973e-016
rhumerus  62.23279953 13.84570026 -66.47080231
rradius  -4.537048249e-033 3.53083355e-031 90.73619843
rwrist  3.531125038e-031 1.059337512e-030 -66.38800049
rhand  -7.920061211e-032 -33.2840004 9.303460121
rfingers  -90 -7.125020027 -90
rthumb  -92.93752616 -24.25625642 -97.11982154
rfemur  -40.24909973 4.946800232 -21.7003994
rtibia  -0 0 84.63939667
rfoot  -4.659614981e-032 -18.68959999 3.868530035
rtoes  5.373923086 19.29304026 -105.8922705
lfemur  -37.50640106 -0.5742160082 -9.339980125
ltibia  -0 0 79.32900238
lfoot  4.813843125e-032 -23.52020073 -2.535180092
ltoes  -4.250644065 -19.5611806 -102.515957
